# xmcd
#
# Track frame offsets: 
#        150
#        11807
#        22163
#        38091
#        47820
#        60527
#        71855
#        81153
#        90325
#        101574
#        111797
#        123853
#        135784
#        147550
#        159857
#        173120
#        183672
#        197641
#        208287
#        219387
#        230973
#        243108
#        255368
#        266931
#        276777
#        286937
#        298578
#        309247
#        320810
#        331362
#
# Disc length: 4552 seconds
#
# Revision: 2
# Processed by: cddbd v1.5.2PL0 Copyright (c) Steve Scherf et al.
# Submitted via: ExactAudioCopy v1.3
#
DISCID=c111c61e
DTITLE=Flatt and Scruggs - Flatt and Scruggs 1964-1969,Plus Bear Family Re
DTITLE=cords [CD1]
DYEAR=1995
DGENRE=Bluegrass
TTITLE0=Petticoat Junction
TTITLE1=Have You Seen My Dear Companion
TTITLE2=The Good Things (Outweigh The Bad)
TTITLE3=Working It Out
TTITLE4=Amber Tresses (Tied In Blue)
TTITLE5=Jimmie Brown The Newsboy
TTITLE6=When Papa Played The Dobro
TTITLE7=Fireball (Instrumental)
TTITLE8=Father's Table Grace
TTITLE9=I'm Walking With Him
TTITLE10=My Wandering Boy
TTITLE11=Sally Don't You Grieve
TTITLE12=A Faded Red Ribbon
TTITLE13=Bummin' An Old Freight Train
TTITLE14=Georgia Buck
TTITLE15=Hello Stranger
TTITLE16=Please Don't Wake Me
TTITLE17=You're Gonna Miss Me When I'm Gone
TTITLE18=I Still Miss Someone
TTITLE19=Wabash Cannonball
TTITLE20=Rose Conelly
TTITLE21=You've Been Fooling My Baby
TTITLE22=Will You Be Lonesome Too?
TTITLE23=Big Shoes To Fill
TTITLE24=Branded Wherever I Go
TTITLE25=Starlight On The Rails
TTITLE26=Loafer's Glory
TTITLE27=I'll Be On That Good Road Some Day
TTITLE28=Confessing
TTITLE29=Gonna Have Myself A Ball
EXTD=
EXTT0=
EXTT1=
EXTT2=
EXTT3=
EXTT4=
EXTT5=
EXTT6=
EXTT7=
EXTT8=
EXTT9=
EXTT10=
EXTT11=
EXTT12=
EXTT13=
EXTT14=
EXTT15=
EXTT16=
EXTT17=
EXTT18=
EXTT19=
EXTT20=
EXTT21=
EXTT22=
EXTT23=
EXTT24=
EXTT25=
EXTT26=
EXTT27=
EXTT28=
EXTT29=
PLAYORDER=
